<svg width="100%" height="100%" viewBox="0 0 193 197" fill="none" xmlns="http://www.w3.org/2000/svg">
<path d="M147.547 132.837C143.457 132.837 140.227 132.787 136.647 132.881C130.199 119.268 117.376 109.793 102.633 107.638V90.2869C114.349 90.1038 138.133 87.0999 157.399 67.8332C183.498 41.7349 179.756 7.34613 179.583 5.89518C179.234 2.95019 176.912 0.628133 173.967 0.279151C172.515 0.107161 138.127 -3.63507 112.029 22.4636C105.281 29.212 100.532 36.5136 97.1963 43.6572C86.5364 18.1807 61.3531 0.234519 32.0544 0.234519H19.2217C15.6784 0.234519 12.8054 3.10718 12.8054 6.65086V19.4836C12.8054 58.4006 44.4669 90.0626 83.3844 90.0626H89.8008V107.64C75.0881 109.796 62.2554 119.26 55.7987 132.838H44.8867C32.0213 132.838 20.2167 138.089 11.6476 147.625C4.354 155.74 1.50976e-08 166.33 1.50976e-08 175.951C-0.00038475 188.294 7.35363 197 19.2217 197H173.212C185.396 197 192.705 188.24 192.705 176.105C192.705 157.184 175.386 132.837 147.547 132.837ZM121.103 31.5371C130.102 22.5386 141.407 16.6855 154.705 14.1407C159.588 13.2061 163.871 12.911 167.006 12.8567C166.952 15.9934 166.657 20.2762 165.722 25.1577C163.177 38.4556 157.324 49.7611 148.326 58.7592C138.619 68.4657 126.344 74.3645 112.373 76.5642L139.252 49.6853C141.757 47.1797 141.757 43.1174 139.252 40.6114C136.746 38.1058 132.684 38.1058 130.178 40.6114L103.299 67.4903C105.498 53.523 111.393 41.2478 121.103 31.5371ZM62.2566 40.6114C59.7514 38.1058 55.6886 38.1058 53.1826 40.6114C50.6767 43.117 50.677 47.1793 53.1826 49.6853L80.661 77.1637C50.0791 75.7362 25.6381 50.4118 25.6381 19.4832V13.0668H32.0544C62.983 13.0668 88.3075 37.5083 89.735 68.0898L62.2566 40.6114ZM173.212 184.167H19.2217C14.4222 184.167 12.8319 180.936 12.8319 175.951C12.8319 169.508 16.0355 161.939 21.1917 156.202C25.5096 151.397 33.1252 145.67 44.8867 145.67H60.0769C62.7921 145.67 65.2135 143.961 66.1227 141.402C70.6721 128.603 82.7661 120.004 96.2167 120.004C107.08 120.004 117.026 125.597 122.857 134.48C114.901 136.697 107.688 141.11 101.876 147.437C99.4791 150.047 99.6519 154.106 102.262 156.503C104.872 158.9 108.931 158.727 111.328 156.118C115.264 151.832 121.85 146.595 131.571 145.624C131.977 145.678 141.783 145.583 147.547 145.583C169.07 145.583 179.873 165.181 179.873 176.104C179.873 182.239 177.259 184.167 173.212 184.167Z" fill="#808080"/>
</svg>