<svg width="48" height="48" xmlns="http://www.w3.org/2000/svg" fill="#000000">

 <g>
  <title>Layer 1</title>
  <g id="svg_1">
   <rect x="0" y="0" id="svg_2" width="20" height="20" fill="none"/>
  </g>
  <g stroke="null" id="svg_3">
   <g stroke="null" id="svg_4">
    <path stroke="null" id="svg_5" fill="rgb(195,195,195)" d="m23.99996,0.06251c-13.22544,0 -23.93745,10.71201 -23.93745,23.93745s10.71201,23.93745 23.93745,23.93745s23.93745,-10.71201 23.93745,-23.93745s-10.71201,-23.93745 -23.93745,-23.93745zm0,10.47264c4.96702,0 8.97654,4.00952 8.97654,8.97654s-4.00952,8.97654 -8.97654,8.97654s-8.97654,-4.00952 -8.97654,-8.97654s4.00952,-8.97654 8.97654,-8.97654zm0,32.914c-6.13397,0 -11.57974,-2.84257 -15.17036,-7.30092c4.33866,-2.93234 9.54506,-4.6678 15.17036,-4.6678s10.8317,1.73547 15.17036,4.6678c-3.59062,4.45835 -9.03639,7.30092 -15.17036,7.30092z"/>
   </g>
  </g>
 </g>
</svg>